<svg width="30" height="30" viewBox="0 0 30 30" fill="none" xmlns="http://www.w3.org/2000/svg">
<path fill-rule="evenodd" clip-rule="evenodd" d="M20.9603 10.0977C21.5967 10.628 21.6827 11.5739 21.1523 12.2103L15.0544 19.5278C15.0388 19.5466 15.0231 19.5654 15.0074 19.5843C14.7214 19.9277 14.4164 20.294 14.1188 20.5647C13.7728 20.8794 13.2601 21.2336 12.5461 21.266C11.8321 21.2984 11.2894 20.992 10.9164 20.71C10.5955 20.4673 10.2585 20.1301 9.94266 19.814C9.92528 19.7966 9.90797 19.7793 9.89073 19.7621L6.93935 16.8107C6.35356 16.2249 6.35356 15.2751 6.93935 14.6893C7.52513 14.1036 8.47488 14.1036 9.06067 14.6893L12.0121 17.6407C12.165 17.7936 12.2895 17.9181 12.399 18.024C12.4985 17.9086 12.6113 17.7734 12.7497 17.6073L18.8477 10.2897C19.378 9.65332 20.3239 9.56733 20.9603 10.0977Z" fill="white"/>
</svg>
