<svg width="24" height="24" viewBox="0 0 24 24" fill="none" xmlns="http://www.w3.org/2000/svg">
<rect x="0.75" y="0.75" width="22.5" height="22.5" rx="3.25" fill="#F1F4FF" stroke="#095761" stroke-width="1.5"/>
<path d="M12.0074 12.8158L7.88377 16.9344C7.78005 17.038 7.62552 17.1 7.4846 17.1C7.34367 17.1 7.18915 17.038 7.08543 16.9344C6.85895 16.7082 6.85892 16.3467 7.08534 16.1205C7.08537 16.1205 7.0854 16.1204 7.08543 16.1204L11.1933 12.0027L7.07022 7.89946L7.06983 7.89907C6.84332 7.67284 6.84332 7.31133 7.06983 7.0851C7.29606 6.85914 7.65721 6.85907 7.88354 7.08487L7.88338 7.08472L7.67177 7.29735L7.88377 7.0851L12.0074 12.8158ZM12.0074 12.8158L16.1158 16.934L16.1161 16.9344C16.2199 17.038 16.3744 17.1 16.5153 17.1C16.6562 17.1 16.8108 17.038 16.9145 16.9344C17.1408 16.7083 17.141 16.3471 16.9149 16.1208C16.9148 16.1207 16.9146 16.1205 16.9145 16.1204L12.8211 12.0023L16.9301 7.8835C16.9302 7.88338 16.9303 7.88323 16.9305 7.88311C17.1566 7.65686 17.1565 7.29564 16.9301 7.06952C16.7038 6.84349 16.3424 6.84349 16.1161 7.06952L16.1158 7.0699L12.007 11.1885L12.0074 12.8158Z" fill="#095761" stroke="#095761" stroke-width="0.6"/>
</svg>
