<svg width="70" height="70" viewBox="0 0 70 70" fill="none" xmlns="http://www.w3.org/2000/svg">
<g id="close_ring">
<path id="Ellipse 86" d="M35 61.25C31.5528 61.25 28.1394 60.571 24.9546 59.2518C21.7698 57.9327 18.876 55.9991 16.4384 53.5616C14.0009 51.124 12.0673 48.2302 10.7482 45.0454C9.42898 41.8606 8.75 38.4472 8.75 35C8.75 31.5528 9.42898 28.1394 10.7482 24.9546C12.0674 21.7698 14.0009 18.876 16.4384 16.4384C18.876 14.0009 21.7698 12.0673 24.9546 10.7482C28.1394 9.42898 31.5528 8.75 35 8.75C38.4472 8.75 41.8606 9.42898 45.0454 10.7482C48.2302 12.0674 51.124 14.0009 53.5616 16.4385C55.9991 18.876 57.9327 21.7698 59.2518 24.9546C60.571 28.1394 61.25 31.5528 61.25 35C61.25 38.4472 60.571 41.8607 59.2518 45.0454C57.9326 48.2302 55.9991 51.124 53.5615 53.5616C51.124 55.9991 48.2302 57.9327 45.0454 59.2518C41.8606 60.571 38.4472 61.25 35 61.25L35 61.25Z" stroke="#D44343" stroke-opacity="0.8" stroke-width="4" stroke-linecap="round"/>
<path id="Vector 112" d="M26.25 26.25L43.75 43.75" stroke="#D44343" stroke-opacity="0.8" stroke-width="4" stroke-linecap="round"/>
<path id="Vector 113" d="M43.75 26.25L26.25 43.75" stroke="#D44343" stroke-opacity="0.8" stroke-width="4" stroke-linecap="round"/>
</g>
</svg>
