<svg width="45" height="45" viewBox="0 0 45 45" fill="none" xmlns="http://www.w3.org/2000/svg">
<path d="M23.4375 14.0625L10.7407 26.7593C10.5282 26.9718 10.4219 27.0781 10.352 27.2087C10.2822 27.3392 10.2527 27.4866 10.1937 27.7813L8.58459 35.8271C8.51806 36.1597 8.4848 36.326 8.57941 36.4206C8.67402 36.5152 8.84033 36.4819 9.17294 36.4154L17.2187 34.8063L17.2187 34.8063C17.5134 34.7473 17.6608 34.7178 17.7913 34.648C17.9219 34.5781 18.0282 34.4718 18.2407 34.2593L18.2407 34.2593L30.9375 21.5625L23.4375 14.0625Z" fill="#E1F6F9"/>
<path d="M26.7108 12.6642L11.6417 27.7333L11.6417 27.7333C11.4471 27.9279 11.3497 28.0253 11.2828 28.1436C11.2158 28.2618 11.1824 28.3954 11.1156 28.6624L9.57711 34.8165C9.48686 35.1776 9.44173 35.3581 9.54182 35.4582C9.6419 35.5583 9.82242 35.5131 10.1835 35.4229L16.3376 33.8844C16.6046 33.8176 16.7382 33.7842 16.8564 33.7172C16.9747 33.6503 17.0721 33.5529 17.2667 33.3583L32.3358 18.2892C33.0025 17.6225 33.3358 17.2892 33.3358 16.875C33.3358 16.4608 33.0025 16.1275 32.3358 15.4608L29.5392 12.6642C28.8725 11.9975 28.5392 11.6642 28.125 11.6642C27.7108 11.6642 27.3775 11.9975 26.7108 12.6642Z" fill="#E1F6F9"/>
<path d="M26.0037 11.9571L10.9453 27.0155L10.9453 27.0155L10.9346 27.0262L10.9346 27.0262C10.9215 27.0393 10.908 27.0527 10.8942 27.0664C10.7421 27.2176 10.5494 27.4091 10.4126 27.6509C10.2757 27.8926 10.2106 28.1563 10.1592 28.3646C10.1545 28.3835 10.15 28.402 10.1455 28.4199L8.60697 34.574C8.60417 34.5852 8.60125 34.5969 8.59823 34.6089C8.56141 34.7553 8.5104 34.9583 8.49283 35.1379C8.47261 35.3446 8.46593 35.7965 8.83471 36.1653L9.54182 35.4582L8.83471 36.1653C9.20349 36.5341 9.65545 36.5274 9.86214 36.5072C10.0418 36.4896 10.2447 36.4386 10.3912 36.4018C10.4032 36.3988 10.4148 36.3958 10.426 36.393L16.5801 34.8545C16.598 34.85 16.6165 34.8455 16.6354 34.8408C16.8437 34.7894 17.1074 34.7243 17.3492 34.5874C17.5909 34.4505 17.7824 34.2579 17.9336 34.1057C17.9474 34.0919 17.9607 34.0785 17.9738 34.0654L33.0429 18.9963L33.0814 18.9579C33.3813 18.6581 33.6728 18.3667 33.8808 18.094C34.1153 17.7866 34.3358 17.3887 34.3358 16.875C34.3358 16.3613 34.1153 15.9634 33.8808 15.656C33.6728 15.3833 33.3813 15.0919 33.0814 14.7921L33.0429 14.7537L30.2463 11.9571L30.2079 11.9186C29.9081 11.6187 29.6167 11.3272 29.344 11.1192C29.0366 10.8847 28.6387 10.6642 28.125 10.6642C27.6113 10.6642 27.2134 10.8847 26.906 11.1192C26.6333 11.3272 26.342 11.6187 26.0422 11.9186L26.0037 11.9571Z" stroke="#379FAC" stroke-opacity="0.6" stroke-width="2"/>
<path d="M23.4375 14.0625L30.9375 21.5625" stroke="#379FAC" stroke-opacity="0.6" stroke-width="2"/>
</svg>
