<svg width="60" height="60" viewBox="0 0 60 60" fill="none" xmlns="http://www.w3.org/2000/svg">
<path d="M38.75 12.5C42.2612 12.5 44.0167 12.5 45.2779 13.3427C45.8238 13.7074 46.2926 14.1762 46.6573 14.7221C47.5 15.9833 47.5 17.7388 47.5 21.25V45C47.5 49.714 47.5 52.0711 46.0355 53.5355C44.5711 55 42.214 55 37.5 55H22.5C17.786 55 15.4289 55 13.9645 53.5355C12.5 52.0711 12.5 49.714 12.5 45V21.25C12.5 17.7388 12.5 15.9833 13.3427 14.7221C13.7074 14.1762 14.1762 13.7074 14.7221 13.3427C15.9833 12.5 17.7388 12.5 21.25 12.5" stroke="#C82F82" stroke-width="4"/>
<path d="M22.5 12.5C22.5 9.73858 24.7386 7.5 27.5 7.5H32.5C35.2614 7.5 37.5 9.73858 37.5 12.5C37.5 15.2614 35.2614 17.5 32.5 17.5H27.5C24.7386 17.5 22.5 15.2614 22.5 12.5Z" stroke="#C82F82" stroke-width="3"/>
<path d="M22.5 30L37.5 30" stroke="#C82F82" stroke-width="3" stroke-linecap="round"/>
<path d="M22.5 40L37.5 40" stroke="#C82F82" stroke-width="3" stroke-linecap="round"/>
</svg>
